# xmcd
# 
# Track frame offsets:
#     150
#     15926
#     31514
#     45894
#     56212
# 
# Disc length: 1066
# 
# Revision: 0
# Processed by: cddbd v1.5.2PL0 Copyright (c) Steve Scherf et al.
# Submitted via: fre:ac v1.0.17
# 
DISCID=29042805
DTITLE=The Eastern - Oh Mystery
DYEAR=2010
DGENRE=Country
TTITLE0=Oh Mystery
TTITLE1=A Bitch and A Liar
TTITLE2=Heart Like A Train
TTITLE3=Maria
TTITLE4=Try Not To Cry
EXTD=
EXTT0=
EXTT1=
EXTT2=
EXTT3=
EXTT4=
PLAYORDER=
